/* XPM */
static char *_ac583edff5f4d7ac53beb51acd17634BQP07PS5n3mcsoCE[] = {
/* columns rows colors chars-per-pixel */
"64 64 9 1 ",
"  c black",
". c gray24",
"X c #3F3F3F",
"o c #DE212E",
"O c #079105",
"+ c #2480BD",
"@ c #CACACA",
"# c #FDFDFD",
"$ c white",
/* pixels */
"++++++++++++++++++++++++++++++++++++++++++++++++++++++++++++++++",
"++++++++++++++++++++++++++++++++++++++++++++++++++++++++++++++++",
"++++++++++++++++++++++++++++++++++++++++++++++++++++++++++++++++",
"++++++++++++++++++++++++++++++++++++++++++++++++++++++++++++++++",
"++++++++++++++++++++++++++++++++++++++++++++++++++++++++++++++++",
"++++++++++++++++++++++++++++++++++++++++++++++++++++++++++++++++",
"+++++++++++++++++++++++++++.............++++++++++++++++++++++++",
"+++++++++++++++++++++......$$$$$$$$$$$$$......++++++++++++++++++",
"+++++++++++++++++++++......$$$$$$$$$$$$$......++++++++++++++++++",
"+++++++++++++++++++..$$$$$$$$$$$$$$$$$$$$$$$$$..++++++++++++++++",
"+++++++++++++++++++..$$$$$$$$$$$$$$$$$$$$$$$$$..++++++++++++++++",
"+++++++++++++++++++..$$$$$$$$$$$$$$$$$$$$$$$$$..++++++++++++++++",
"+++++++++++++++....$$$$$$$$OOOO$$$$$OOOO$$$$$$$$....++++++++++++",
"+++++++++++++++....$$$$$$$$OOOO$$$$$OOOO$$$$$$$$....++++++++++++",
"+++++++++++++++....$$$$$$$$OOOO$$$$$OOOO$$$$$$$$....++++++++++++",
"+++++++++++++++....$$$$$$$$$$$$$$$$$$$$$$$$$$$$$....++++++++++++",
"+++++++++++++++....$$$$$$$$$$$$$$$$$$$$$$$$$$$$$....++++++++++++",
"+++++++++++++++....$$$$$$$$$$$$$$$$$$$$$$$$$$$$$....++++++++++++",
"+++++++++++++++....$$$$$$$$$$$$$$$$$$$$$$$$$$$$$....++++++++++++",
"+++++++++++++++....$$$$$$$$oo$$$$$$$oo$$$$$$$$$$....++++++++++++",
"+++++++++++++++++++..$$$$$$$$ooooooo$$$$$$$$$$..++++++++++++++++",
"+++++++++++++++++++..$$$$$$$$ooooooo$$$$$$$$$$..++++++++++++++++",
"+++++++++++++++++++..$$$$$$$$$$$$$$$$$$$$$$$$$..++++++++++++++++",
"+++++++++++++++++++++....$$$$$$$$$$$$$$$$$....++++++++++++++++++",
"+++++++++++++++++++++++++.................++++++++++++++++++++++",
"++++++++++++++++++++....@$$$$$$$$$$$$$$$$...XX.+++++++++++++++++",
"++++++++++++++++++..##$$$$$$$$$$$$$$$$$$$$$$$$$#..++++++++++++++",
"++++++++++++++++++XX##$$$$$$$$$$$$$$$$$$$$$$$$$#..++++++++++++++",
"++++++++++++++++++..$$$$..$$$$$$$$$$$$$$$$$..$$$..++++++++++++++",
"++++++++++++++++++..$$$$..$$$$$$$$$$$$$$$$$..$$$..++++++++++++++",
"++++++++++++++++++..$$$$..$$$$$$$$$$$$$$$$$..$$$..++++++++++++++",
"++++++++++++++++++..$$$$..$$$$$$$$$$$$$$$$$..$$$..++++++++++++++",
"++++++++++++++++++..$$$$..$$$$$ $$ $$   $$$..$$$..++++++++++++++",
"++++++++++++++++++..$$$$..$$$$$ $$ $$$$ $$$..$$$..++++++++++++++",
"++++++++++++++++++..$$$$..$$$$$    $$   $$$..$$$..++++++++++++++",
"++++++++++++++++++..$$$$..$$$$$$$$ $$ $$$$$..$$$..++++++++++++++",
"++++++++++++++++++..$$$$..$$$$$$$$ $$   $$$..$$$..++++++++++++++",
"++++++++++++++++++..$$$$..$$$$$$$$$$$$$$$$$..$$$..++++++++++++++",
"++++++++++++++++++..$$$$..$$$$$$$$$$$$$$$$$..$$$..++++++++++++++",
"++++++++++++++++++..$$$$$$....$$$$$$$$$....$$$$$..++++++++++++++",
"++++++++++++++++++..$$$$$$....$$$$$$$$$....$$$$$..++++++++++++++",
"++++++++++++++++++..$$$$$$....$$$$$$$$$....$$$$$..++++++++++++++",
"++++++++++++++++++..X.....$$$$$$$$$$$$$$$$$.......++++++++++++++",
"++++++++++++++++++++....$$$$$$$$$...$$$$$$$$$..+++++++++++++++++",
"++++++++++++++++++++....$$$$$$$$$...$$$$$$$$$..+++++++++++++++++",
"++++++++++++++++++++....$$$$$$$$$...$$$$$$$$$..+++++++++++++++++",
"++++++++++++++++++++....$$$$$$$$$...$$$$$$$$$..+++++++++++++++++",
"++++++++++++++++++++....$$$$$$$$$...$$$$$$$$$..+++++++++++++++++",
"++++++++++++++++++++....$$$$$$$$$...$$$$$$$$$..+++++++++++++++++",
"++++++++++++++++++++....$$$$$$$$$...$$$$$$$$$..+++++++++++++++++",
"++++++++++++++++++++....$$$$$$$$$...$$$$$$$$$..+++++++++++++++++",
"++++++++++++++++++++....$$$$$$$$$...$$$$$$$$$..+++++++++++++++++",
"++++++++++++++++++++....$$$$$$$$$...$$$$$$$$$..+++++++++++++++++",
"++++++++++++++++++++....$$$$$$$$$...$$$$$$$$$..+++++++++++++++++",
"++++++++++++++++++..##$$$$$$$$$$$...$$$$$$$$$$$X.XX+++++++++++++",
"++++++++++++++++++..##$$$$$$$$$$$...$$$$$$$$$$$X..X+++++++++++++",
"++++++++++++++++++..$$$$$$$$$$$$$...$$$$$$$$$$$....+++++++++++++",
"++++++++++++++++++++..XX...X...X..X.....XX....X+++++++++++++++++",
"++++++++++++++++++++XXXX.XXX.XXXXXX.....XXXXXXX+++++++++++++++++",
"++++++++++++++++++++++++++++++++++++++++++++++++++++++++++++++++",
"++++++++++++++++++++++++++++++++++++++++++++++++++++++++++++++++",
"++++++++++++++++++++++++++++++++++++++++++++++++++++++++++++++++",
"++++++++++++++++++++++++++++++++++++++++++++++++++++++++++++++++",
"++++++++++++++++++++++++++++++++++++++++++++++++++++++++++++++++"
};


