/* XPM */
static char *_5523edd35354a06c4f8799581f95838WxySNt5BFaMiI7av[] = {
/* columns rows colors chars-per-pixel */
"64 64 10 1 ",
"  c black",
". c gray24",
"X c #3F3F3F",
"o c #DE212E",
"O c #079105",
"+ c #2480BD",
"@ c #CACACA",
"# c gray80",
"$ c #FDFDFD",
"% c white",
/* pixels */
"++++++++++++++++++++++++++++++++++++++++++++++++++++++++++++++++",
"++++++++++++++++++++++++++++++++++++++++++++++++++++++++++++++++",
"++++++++++++++++++++++++++++++++++++++++++++++++++++++++++++++++",
"++++++++++++++++++++++++++++++++++++++++++++++++++++++++++++++++",
"++++++++++++++++++++++++++++++++++++++++++++++++++++++++++++++++",
"+++++++++++++++++++++++++.............++++++++++++++++++++++++++",
"+++++++++++++++++++......#############......++++++++++++++++++++",
"+++++++++++++++++++......#############......++++++++++++++++++++",
"+++++++++++++++++..#############%%%%%%%%%%%%..++++++++++++++++++",
"+++++++++++++++++..##########%%%%%%%%%%%%%%%..++++++++++++++++++",
"+++++++++++++++++..##########%%%%%%%%%%%%%%%..++++++++++++++++++",
"+++++++++++++....########%%%%%%%%%%%%%%%%%%%%%....++++++++++++++",
"+++++++++++++....######OOOO%%%%%OOOO%%%%%%%%%%....++++++++++++++",
"+++++++++++++....######OOOO%%%%%OOOO%%%%%%%%%%....++++++++++++++",
"+++++++++++++....######OOOO%%%%%OOOO%%%%%%%%%%....++++++++++++++",
"+++++++++++++....######%%%%%%%%%%%%%%%%%%%%%%%....++++++++++++++",
"+++++++++++++....######%%%%%%%%%%%%%%%%%%%%%%%....++++++++++++++",
"+++++++++++++....######%%%%%%%%%%%%%%%%%%%%%%%....++++++++++++++",
"+++++++++++++....######%%%%%%%%%%%%%%%%%%%%%%%....++++++++++++++",
"+++++++++++++++++..####%%oo%%%%%%%oo%%%%%%%%..++++++++++++++++++",
"+++++++++++++++++..####%%%%ooooooo%%%%%%%%%%..++++++++++++++++++",
"+++++++++++++++++..####%%%%ooooooo%%%%%%%%%%..++++++++++++++++++",
"+++++++++++++++++++....%%%%%%%%%%%%%%%%%....++++++++++++++++++++",
"+++++++++++++++++++++++.................++++++++++++++++++++++++",
"+++++++++++++++++++++++.................++++++++++++++++++++++++",
"+++++++++++++++++.X.XXX@@#############@@....++++++++++++++++++++",
"+++++++++++++XX.X..@@@@######%%%%%%%%%%%$$%%.X++++++++++++++++++",
"+++++++++++++XX.X..@@@@######%%%%%%%%%%%$$%%.X++++++++++++++++++",
"+++++++++++++......######%%%%%%%%%%%%%..%%%%..++++++++++++++++++",
"+++++++++++++......######%%%%%%%%%%%%%..%%%%..++++++++++++++++++",
"+++++++++++++......######%%%%%%%%%%%%%..%%%%..++++++++++++++++++",
"+++++++++++++......####  %%  %    %%%%..%%%%..++++++++++++++++++",
"+++++++++++++......####      %%%  %%%%..%%%%..++++++++++++++++++",
"+++++++++++++......####      %%%  %%%%..%%%%..++++++++++++++++++",
"+++++++++++++......####%%%%  %  %%%%%%..%%%%..++++++++++++++++++",
"+++++++++++++......####%%%%  %  %%%%%%..%%%%..++++++++++++++++++",
"+++++++++++++......####%%%%  %    %%%%..%%%%..++++++++++++++++++",
"+++++++++++++......####%%%%%%%%%%%%%%%..%%%%..++++++++++++++++++",
"+++++++++++++......####%%%%%%%%%%%%%%%..%%%%..++++++++++++++++++",
"+++++++++++++......####%%%%%%%%%%%....%%%%%%..++++++++++++++++++",
"+++++++++++++......####%%%%%%%%%%%....%%%%%%..++++++++++++++++++",
"+++++++++++++......####%%%%%%%%%%%....%%%%%%..++++++++++++++++++",
"+++++++++++++++++..####%%%%%%%%%%%%%%%........++++++++++++++++++",
"+++++++++++++++++..####%%....%%%%%%%%%%%....++++++++++++++++++++",
"+++++++++++++++++..####%%....%%%%%%%%%%%....++++++++++++++++++++",
"+++++++++++++++++..####%%....%%%%%%%%%%%....++++++++++++++++++++",
"+++++++++++++++++..####%%....###%%%%%%%%....++++++++++++++++++++",
"+++++++++++++++++..####%%....###%%%%%%%%....++++++++++++++++++++",
"+++++++++++++++++..####%%....###%%%%%%%%....++++++++++++++++++++",
"+++++++++++++++++..####%%....###%%%%%%%%....++++++++++++++++++++",
"+++++++++++++++++..####%%....###%%%%%%%%....++++++++++++++++++++",
"+++++++++++++++++..####%%....###%%%%%%%%....++++++++++++++++++++",
"+++++++++++++++++..####%%....###%%%%%%%%....++++++++++++++++++++",
"+++++++++++++++++..####%%....###%%%%%%%%....++++++++++++++++++++",
"+++++++++++++X...@@####%%....###@@%%%%%%$$%%XX++++++++++++++++++",
"+++++++++++++XXX.@@####%%....####@%%%%%%$$%%XX++++++++++++++++++",
"+++++++++++++....########....###########%%%%..++++++++++++++++++",
"+++++++++++++++++XXXXXXXX....XXX..XXXXXXXX..++++++++++++++++++++",
"+++++++++++++++++XXXXXXXX....XXXXXXXXXXXXX..++++++++++++++++++++",
"++++++++++++++++++++++++++++++++++++++++++++++++++++++++++++++++",
"++++++++++++++++++++++++++++++++++++++++++++++++++++++++++++++++",
"++++++++++++++++++++++++++++++++++++++++++++++++++++++++++++++++",
"++++++++++++++++++++++++++++++++++++++++++++++++++++++++++++++++",
"++++++++++++++++++++++++++++++++++++++++++++++++++++++++++++++++"
};


