/* XPM */
static char *a17dad31075444c89ce91e0b907fd7e0Y80zv8qlIHHPxJys[] = {
/* columns rows colors chars-per-pixel */
"64 64 10 1 ",
"  c black",
". c gray24",
"X c #3F3F3F",
"o c #DE212E",
"O c #079105",
"+ c #2480BD",
"@ c #CACACA",
"# c gray80",
"$ c #FDFDFD",
"% c white",
/* pixels */
"++++++++++++++++++++++++++++++++++++++++++++++++++++++++++++++++",
"++++++++++++++++++++++++++++++++++++++++++++++++++++++++++++++++",
"++++++++++++++++++++++++++++++++++++++++++++++++++++++++++++++++",
"++++++++++++++++++++++++++++++++++++++++++++++++++++++++++++++++",
"++++++++++++++++++++++++++++++++++++++++++++++++++++++++++++++++",
"++++++++++++++++++++++++++.............+++++++++++++++++++++++++",
"++++++++++++++++++++......#############......+++++++++++++++++++",
"++++++++++++++++++++......#############......+++++++++++++++++++",
"++++++++++++++++++..%%%%%%%%%%%%#############..+++++++++++++++++",
"++++++++++++++++++..%%%%%%%%%%%%%%%##########..+++++++++++++++++",
"++++++++++++++++++..%%%%%%%%%%%%%%%##########..+++++++++++++++++",
"++++++++++++++....%%%%%%%%%%%%%%%%%%%%%########....+++++++++++++",
"++++++++++++++....%%%%%%%%%%OOOO%%%%%OOOO######....+++++++++++++",
"++++++++++++++....%%%%%%%%%%OOOO%%%%%OOOO######....+++++++++++++",
"++++++++++++++....%%%%%%%%%%OOOO%%%%%OOOO######....+++++++++++++",
"++++++++++++++....%%%%%%%%%%%%%%%%%%%%%%%######....+++++++++++++",
"++++++++++++++....%%%%%%%%%%%%%%%%%%%%%%%######....+++++++++++++",
"++++++++++++++....%%%%%%%%%%%%%%%%%%%%%%%######....+++++++++++++",
"++++++++++++++....%%%%%%%%%%%%%%%%%%%%%%%######....+++++++++++++",
"++++++++++++++++++..%%%%%%%%oo%%%%%%%oo%%####..+++++++++++++++++",
"++++++++++++++++++..%%%%%%%%%%ooooooo%%%%####..+++++++++++++++++",
"++++++++++++++++++..%%%%%%%%%%ooooooo%%%%####..+++++++++++++++++",
"++++++++++++++++++++....%%%%%%%%%%%%%%%%%....+++++++++++++++++++",
"++++++++++++++++++++++++.................+++++++++++++++++++++++",
"++++++++++++++++++++++++.................+++++++++++++++++++++++",
"++++++++++++++++++++....@@#@###########@#...XXX+++++++++++++++++",
"++++++++++++++++++..$$%%%%%%%%%%%%%######@@@#...XX.+++++++++++++",
"++++++++++++++++++XX$$%%%%%%%%%%%%%######@@@#...XX.+++++++++++++",
"++++++++++++++++++..%%%%..%%%%%%%%%%%%%######......+++++++++++++",
"++++++++++++++++++..%%%%..%%%%%%%%%%%%%######......+++++++++++++",
"++++++++++++++++++..%%%%..%%%%%%%%%%%%%######......+++++++++++++",
"++++++++++++++++++..%%%%..%%%%%%%%%%%%%%%####......+++++++++++++",
"++++++++++++++++++..%%%%..%%%%% %% %%   %####......+++++++++++++",
"++++++++++++++++++..%%%%..%%%%% %% %%%% %####......+++++++++++++",
"++++++++++++++++++..%%%%..%%%%%    %%   %####......+++++++++++++",
"++++++++++++++++++..%%%%..%%%%%%%% %% %%%####......+++++++++++++",
"++++++++++++++++++..%%%%..%%%%%%%% %%   %####......+++++++++++++",
"++++++++++++++++++..%%%%..%%%%%%%%%%%%%%%####......+++++++++++++",
"++++++++++++++++++..%%%%..%%%%%%%%%%%%%%%####......+++++++++++++",
"++++++++++++++++++..%%%%%%....%%%%%%%%%%%####......+++++++++++++",
"++++++++++++++++++..%%%%%%....%%%%%%%%%%%####......+++++++++++++",
"++++++++++++++++++..%%%%%%....%%%%%%%%%%%####......+++++++++++++",
"++++++++++++++++++..X.....%%%%%%%%%%%%%%%####..+++++++++++++++++",
"++++++++++++++++++++....%%%%%%%%%%%....%%####..+++++++++++++++++",
"++++++++++++++++++++....%%%%%%%%%%%....%%####..+++++++++++++++++",
"++++++++++++++++++++....%%%%%%%%%%%....%%####..+++++++++++++++++",
"++++++++++++++++++++....%%%%%%%%###....%%####..+++++++++++++++++",
"++++++++++++++++++++....%%%%%%%%###....%%####..+++++++++++++++++",
"++++++++++++++++++++....%%%%%%%%###....%%####..+++++++++++++++++",
"++++++++++++++++++++....%%%%%%%%###....%%####..+++++++++++++++++",
"++++++++++++++++++++....%%%%%%%%###....%%####..+++++++++++++++++",
"++++++++++++++++++++....%%%%%%%%###....%%####..+++++++++++++++++",
"++++++++++++++++++++....%%%%%%%%###....%%####..+++++++++++++++++",
"++++++++++++++++++++....%%%%%%%%###....%%####..+++++++++++++++++",
"++++++++++++++++++..$$%%%%%%%%@####....%%####@@X.XX+++++++++++++",
"++++++++++++++++++..$$%%%%%%%%#####....%%####@@X.XX+++++++++++++",
"++++++++++++++++++..%%%%###########....########....+++++++++++++",
"++++++++++++++++++++..XXXXXXXXXX..X....XXXXXXXX+++++++++++++++++",
"++++++++++++++++++++XXXXXXXXXXXXXXX....XXXXXXXX+++++++++++++++++",
"++++++++++++++++++++++++++++++++++++++++++++++++++++++++++++++++",
"++++++++++++++++++++++++++++++++++++++++++++++++++++++++++++++++",
"++++++++++++++++++++++++++++++++++++++++++++++++++++++++++++++++",
"++++++++++++++++++++++++++++++++++++++++++++++++++++++++++++++++",
"++++++++++++++++++++++++++++++++++++++++++++++++++++++++++++++++"
};

