/* XPM */
static char *_9ac2428d00c4075886f795eca47e33fcdumIoEHwBZP7DzJ[] = {
/* columns rows colors chars-per-pixel */
"64 64 8 1 ",
"  c black",
". c #391E0B",
"X c #FF5722",
"o c #F44336",
"O c #FF9800",
"+ c #FFC107",
"@ c #FFEB3B",
"# c #2480BD",
/* pixels */
"################################################################",
"################################################################",
"################################################################",
"################################################################",
"################################################################",
"################################################################",
"################################################################",
"################################################################",
"################################################################",
"################################################################",
"################################################################",
"################################################################",
"################################################################",
"################################################################",
"################################################################",
"#################################..........#####################",
"#################################..........#####################",
"###############################..OO++++++@@..###################",
"###############################..OO++++++@@..###################",
"#############################..++@@@@@@@@@@@@..#################",
"#############################..++@@@@@@@@@@@@..#################",
"###########################..++@@@@@@@@@@@@@@..#################",
"###########################..++@@@@@@@@@@@@@@..#################",
"###########################..@@@@    @@@@@@@@  ..###############",
"###########################..@@@@    @@@@@@@@  ..###############",
"###########################..@@@@    XXXXXXXX  ..###############",
"###########################..@@@@    XXXXXXXX  ..###############",
"#########################....@@@@@@@@++ooooooOO..###############",
"#########################....@@@@@@@@++ooooooOO..###############",
"#######################..@@@@OO@@@@@@++++++++++..###############",
"#######################..@@@@OO@@@@@@++++++++++..###############",
"#####################..@@@@@@@@OO++++@@++++OO..#################",
"#####################..@@@@@@@@OO++++@@++++OO..#################",
"###############......@@@@@@@@@@@@@@@@++++++++OO..###############",
"###############......@@@@@@@@@@@@@@@@++++++++OO..###############",
"#############..OO++....@@@@@@@@++@@@@++++++++++..###############",
"#############..OO++....@@@@@@@@++@@@@++++++++++..###############",
"#############..++++@@++......OO@@@@++++++++++++..###############",
"#############..++++@@++......OO@@@@++++++++++++..###############",
"###############..@@@@++++++++++++++++++++++++++..###############",
"###############..@@@@++++++++++++++++++++++++++..###############",
"#################..@@@@++OOOO++++++++++++OOOO....###############",
"#################..@@@@++OOOO++++++++++++OOOO....###############",
"###################......++++++++OOOOOOOO..........#############",
"###################......++++++++OOOOOOOO..........#############",
"#######################............................#############",
"#######################............................#############",
"#######################..####################....###############",
"#######################..####################....###############",
"################################################################",
"################################################################",
"################################################################",
"################################################################",
"################################################################",
"################################################################",
"################################################################",
"################################################################",
"################################################################",
"################################################################",
"################################################################",
"################################################################",
"################################################################",
"################################################################",
"################################################################"
};
