/* XPM */
static char *_8396ffeb1554556cd0c3b01c96eebe0eK7t6lNllVB0bOCX[] = {
/* columns rows colors chars-per-pixel */
"64 64 4 1 ",
"  c black",
". c #2480BD",
"X c #FFFCFF",
"o c white",
/* pixels */
"................................................................",
"................................................................",
"................................................................",
"................................................................",
"................................................................",
".........................oooooooooooooo.........................",
".........................oooooooooooooo.........................",
"...................oooooooooooooooooooooooooo...................",
"...................oooooooooooooooooooooooooo...................",
"..................oooooooooooooooooooooooooooo..................",
"..............oooooooooooooooooooooooooooooooooooo..............",
"..............oooooooooooooooooooooooooooooooooooo..............",
"............oooooooooooooooooooooooooooooooooooooooo............",
"............oooooooooooooooooooooooooooooooooooooooo............",
"..........oooooooooooooooooooooooooooooooooooooooooooo..........",
"..........oooooooooooooooooooooooooooooooooooooooooooo..........",
"..........oooooooooooooooooooooooooooooooooooooooooooo..........",
".........oooooooooooooooooooooooooooooooooooooooooooooo.........",
".........oooooooooooooooooooooooooooooooooooooooooooooo.........",
".......oooooooooooooooooooooooooooooooooooooooooooooooooo.......",
".......oooooooooooooooooooooooooooooooooooooooooooooooooo.......",
".......oooooooooooooooooooooooooooooooooooooooooooooooooo.......",
".......oooooooooooooooooooooooooooooooooooooooooooooooooo.......",
".......oooooooooooooooooooooooooooooooooooooooooooooooooo.......",
".....oooooooooooooooooooooooooooooooooooooooooooooooooooooo.....",
".....oooooooooooooooooooooooooooooooooooooooooooooooooooooo.....",
".....ooo      oooooo    oooo  oooo  oooo  oooo          ooo.....",
".....ooo      oooooo    oooo  oooo  oooo  oooo          ooo.....",
".....ooo  oooo  oo  oooo  oo    oo  oooo  oooooooo  ooooooo.....",
".....ooo  oooo  oo  oooo  oo    oo  oooo  oooooooo  ooooooo.....",
".....ooo  oooo  oo  oooo  oo  oo    oooooooooooooo  ooooooo.....",
".....ooo  oooo  oo  oooo  oo  oo    oooooooooooooo  ooooooo.....",
".....ooo  oooo  oo  oooo  oo  oooo  oooooooooooooo  ooooooo.....",
".....ooo  oooo  oo  oooo  oo  oooo  oooooooooooooo  ooooooo.....",
".....ooo      oooooo    oooo  oooo  oooooooooooooo  ooooooo.....",
".....ooo      oooooo    oooo  oooo  oooooooooooooo  ooooooo.....",
".....oooooooooooooooooooooooooooooooooooooooooooooooooooooo.....",
".....oooooooooooooooooooooooooooooooooooooooooooooooooooooo.....",
".....oooooooooooooooooooooooooooooooooooooooooooooooooooooo.....",
".....oooooooooooooooooooooooooooooooooooooooooooooooooooooo.....",
".....oooooooooooooooooooooooooooooooooooooooooooooooooooooo.....",
".....oooooooooooooooooooooooooooooooooooooooooooooooooooooo.....",
".....oooo      oooooo    oooo  oooo  oo      oooo    oooooo.....",
".....oooo      oooXXo    XXXo  oXoo  oo      XXXo    oooooo.....",
".....oooo  oXXo  Xo  oXXo  oo    Xo  oXXo  ooXo  oXXX  oooo.....",
".....oooo  oXXo  Xo  oXXo  oo    Xo  oXXo  XXXo  oXXX  oooo.....",
".....oooo      oooo        XX  oo    oXXo  oXXX  XXXXXooooo.....",
".....oooo      XXXo        oo  Xo    oXXX  oXXX  XXXXXooooo.....",
".....oooo  ooXXXXXX  oXXX  oo  oXXo  XXoo  oXXo  oXXX  oooo.....",
".....oooo  XXXXXXXX  oXXX  oo  oXXo  XXoo  oXXo  oXXo  oooo.....",
".....oooo  oXXXXXXo  oXXo  oo  XXXo  oX      XXXo    oXoooo.....",
".....oooo  oXXXXXXo  oXXo  oo  XXXo  oX      XXXo    XXoooo.....",
".....ooooooXXXXXXXXXXXXXXXXXXXXXXXXXXXXXoXXXXXXXXXXXXXXoooo.....",
".....ooooooXXXXXXXXXXXXXXXXXXXXXXXXXXXXXoXXXXXXXXXXXXXXoooo.....",
".....ooooooXXXXXXXXXXXXXXXXXXXXXXXXXXXXXXXXXXXooXXXXXXXoooo.....",
".....oooooooooooooooooooooooooooooooooooooooooooooooooooooo.....",
".....oooooooooooooooooooooooooooooooooooooooooooooooooooooo.....",
".....oooooooooooooooooooooooooooooooooooooooooooooooooooooo.....",
".....oooooooooooooooooooooooooooooooooooooooooooooooooooooo.....",
".....oooooooooooooooooooooooooooooooooooooooooooooooooooooo.....",
".....oooooooooooooooooooooooooooooooooooooooooooooooooooooo.....",
".....oooooooooooooooooooooooooooooooooooooooooooooooooooooo.....",
".....oooooooooooooooooooooooooooooooooooooooooooooooooooooo.....",
".....oooooooooooooooooooooooooooooooooooooooooooooooooooooo....."
};
