/* XPM */
static char *_ddc9a96ee7b451ccf87e669bb9a8fa7iDLXq7nCgglGSYRR[] = {
/* columns rows colors chars-per-pixel */
"64 64 3 1 ",
"  c black",
". c #2480BD",
"X c white",
/* pixels */
"................................................................",
"................................................................",
"................................................................",
"................................................................",
"................................................................",
".........................              .........................",
".........................              .........................",
"...................                          ...................",
"...................                          ...................",
"..................                            ..................",
"..............                                    ..............",
"..............                                    ..............",
"............                                        ............",
"............                                        ............",
"..........                                            ..........",
"..........                                            ..........",
"..........                                            ..........",
".........                                              .........",
".........                                              .........",
".......                                                  .......",
".......                                                  .......",
".......                                                  .......",
".......                                                  .......",
".......                                                  .......",
".....                                                      .....",
".....                                                      .....",
".....                                                      .....",
".....                                                      .....",
".....                                                      .....",
".....                                                      .....",
".....                                                      .....",
".....     XXXXXX      XXXX    XX    XX  XXXXXX    XXXX     .....",
".....     XXXXXX      XXXX    XX    XX  XXXXXX    XXXX     .....",
".....     XX    XX  XX    XX  XXXX  XX    XX    XX    XX   .....",
".....     XX    XX  XX    XX  XXXX  XX    XX    XX    XX   .....",
".....     XXXXXX    XXXXXXXX  XX  XXXX    XX    XX         .....",
".....     XXXXXX    XXXXXXXX  XX  XXXX    XX    XX         .....",
".....     XX        XX    XX  XX    XX    XX    XX    XX   .....",
".....     XX        XX    XX  XX    XX    XX    XX    XX   .....",
".....     XX        XX    XX  XX    XX  XXXXXX    XXXX     .....",
".....     XX        XX    XX  XX    XX  XXXXXX    XXXX     .....",
".....                                                      .....",
".....                                                      .....",
".....                                                      .....",
".....                                                      .....",
".....                                                      .....",
".....                                                      .....",
".....                                                      .....",
".....      XX                                              .....",
".....     XXXX                                             .....",
".....     XXXX                                             .....",
".....      XX                                              .....",
".....                                                      .....",
".....                                                      .....",
".....                                                      .....",
".....                                                      .....",
".....                                                      .....",
".....                                                      .....",
".....                                                      .....",
".....                                                      .....",
".....                                                      .....",
".....                                                      .....",
".....                                                      .....",
".....                                                      ....."
};
