/* XPM */
static char *_86f5f08127e460fe46f6939a3cfe8c1MXRyedza3YNZ6vtp[] = {
/* columns rows colors chars-per-pixel */
"64 64 2 1 ",
"  c black",
". c #D26B20",
/* pixels */
"....... ....... ....... .............. ....... ....... .........",
"....... ....... ....... .............. ....... ....... .........",
"                                                                ",
"... ........ ...... ........ ..... ........ ...... ........ ....",
"... ........ ...... ........ ..... ........ ...... ........ ....",
"... ........ ...... ........ ..... ........ ...... ........ ....",
"                                                                ",
"....... ....... ....... .............. ....... ....... .........",
"....... ....... ....... .............. ....... ....... .........",
"....... ....... ....... .............. ....... ....... .........",
"                                                                ",
"... ........ ...... ........ ..... ........ ...... ........ ....",
"... ........ ...... ........ ..... ........ ...... ........ ....",
"... ........ ...... ........ ..... ........ ...... ........ ....",
"                                                                ",
"....... ....... ....... .............. ....... ....... .........",
"....... ....... ....... .............. ....... ....... .........",
"                                                                ",
"... ........ ...... ........ ..... ........ ...... ........ ....",
"... ........ ...... ........ ..... ........ ...... ........ ....",
"... ........ ...... ........ ..... ........ ...... ........ ....",
"                                                                ",
"....... ....... ....... .............. ....... ....... .........",
"....... ....... ....... .............. ....... ....... .........",
"....... ....... ....... .............. ....... ....... .........",
"                                                                ",
"... ........ ...... ........ ..... ........ ...... ........ ....",
"... ........ ...... ........ ..... ........ ...... ........ ....",
"... ........ ...... ........ ..... ........ ...... ........ ....",
"                                                                ",
"....... ....... ....... .............. ....... ....... .........",
"....... ....... ....... .............. ....... ....... .........",
"                                                                ",
"... ........ ...... ........ ..... ........ ...... ........ ....",
"... ........ ...... ........ ..... ........ ...... ........ ....",
"... ........ ...... ........ ..... ........ ...... ........ ....",
"                                                                ",
"....... ....... ....... .............. ....... ....... .........",
"....... ....... ....... .............. ....... ....... .........",
"....... ....... ....... .............. ....... ....... .........",
"                                                                ",
"... ........ ...... ........ ..... ........ ...... ........ ....",
"... ........ ...... ........ ..... ........ ...... ........ ....",
"... ........ ...... ........ ..... ........ ...... ........ ....",
"                                                                ",
"....... ....... ....... .............. ....... ....... .........",
"....... ....... ....... .............. ....... ....... .........",
"                                                                ",
"... ........ ...... ........ ..... ........ ...... ........ ....",
"... ........ ...... ........ ..... ........ ...... ........ ....",
"... ........ ...... ........ ..... ........ ...... ........ ....",
"                                                                ",
"....... ....... ....... .............. ....... ....... .........",
"....... ....... ....... .............. ....... ....... .........",
"....... ....... ....... .............. ....... ....... .........",
"                                                                ",
"....... ....... ....... .............. ....... ....... .........",
"....... ....... ....... .............. ....... ....... .........",
"                                                                ",
"... ........ ...... ........ ..... ........ ...... ........ ....",
"... ........ ...... ........ ..... ........ ...... ........ ....",
"... ........ ...... ........ ..... ........ ...... ........ ....",
"                                                                ",
"....... ....... ....... .............. ....... ....... ........."
};
